.
..............................Site Info...........................

 -   http://www.scenetime.com  *_*    

Scenetime .Always on time . friendly online private torrent community ..

     We care to share . Join us on  http://www.scenetime.com 

    Be the first to get new release at  http://www.scenetime.com

        Seed back for speed


...................................NFO:.................................................[IMG]http://img191.imageshack.us/img191/8176/theamazingspidermandvdc.jpg[/IMG]


[color=blue][size=4][b]The.Amazing.SpiderMan.2012.DVDRip.XVID.AC3.HQ.Hive-CM8[/b][/size][/color]


[b]Thx Hive

CM8 Doing It Right The First Time :D


Source: DVD-R 9

Encode:
DVD had good quality, just too dark for my taste.
that dvd5 size dvdr was bad as hell, waited for a full disc.

added brightness, sharpness, rgb and denoise
added the deleted scenes as additional avi

got very nice and will do me til bluray comes around

Video: 720x304 @bitrate 1700 2pass
Audio: English AC3 5.1 @384
Subs: Yes, English in srt /subs
Bonus: Yes, the deleted scenes as additional file
Sample: Yes, included


Note:
Wasnt around last 2 weeks, sorry, movies got delayed will do asap[/b]
 
http://www.imdb.com/title/tt0948470/


General
Complete name                  : The.Amazing.SpiderMan.2012.DVDRip.XVID.AC3.HQ.Hive-CM8.avi
Format                         : AVI
Format/Info                    : Audio Video Interleave
Format profile                 : OpenDML
Format settings                : rec
File size                      : 1.99 GiB
Duration                       : 2h 16mn
Overall bit rate               : 2 089 Kbps
Writing application            : AVI-Mux GUI 1.17.7, Aug  8 2006  20:59:17

Video
ID                             : 0
Format                         : MPEG-4 Visual
Format profile                 : Advanced Simple@L5
Format settings, BVOP          : 2
Format settings, QPel          : Yes
Format settings, GMC           : No warppoints
Format settings, Matrix        : Default (H.263)
Muxing mode                    : Packed bitstream
Codec ID                       : XVID
Codec ID/Hint                  : XviD
Duration                       : 2h 16mn
Bit rate                       : 1 700 Kbps
Width                          : 720 pixels
Height                         : 304 pixels
Display aspect ratio           : 2.35:1
Frame rate                     : 23.976 fps
Color space                    : YUV
Chroma subsampling             : 4:2:0
Bit depth                      : 8 bits
Scan type                      : Progressive
Compression mode               : Lossy
Bits/(Pixel*Frame)             : 0.324
Stream size                    : 1.62 GiB (81%)
Writing library                : XviD 1.2.1 (UTC 2008-12-04)

Audio
ID                             : 1
Format                         : AC-3
Format/Info                    : Audio Coding 3
Mode extension                 : CM (complete main)
Format settings, Endianness    : Big
Codec ID                       : 2000
Duration                       : 2h 16mn
Bit rate mode                  : Constant
Bit rate                       : 384 Kbps
Channel(s)                     : 6 channels
Channel positions              : Front: L C R, Side: L R, LFE
Sampling rate                  : 48.0 KHz
Bit depth                      : 16 bits
Compression mode               : Lossy
Stream size                    : 374 MiB (18%)
Alignment                      : Aligned on interleaves
Interleave, duration           : 64 ms (1.53 video frames)
Interleave, preload duration   : 192 ms


Plot:
Peter Parker finds a clue that might help him understand why his parents
disappeared when he was young. His path puts him on a collision course
with Dr. Curt Connors, his father's former partner.


Cast:
Andrew Garfield  ...    Spider-Man / Peter Parker
Emma Stone       ...    Gwen Stacy
Rhys Ifans       ...    The Lizard / Dr. Curt Connors
Denis Leary      ...    Captain Stacy


[img]http://img443.imageshack.us/img443/5641/aaassass.png[/img]
[img]http://img855.imageshack.us/img855/1811/aaasssm.png[/img]
[img]http://img687.imageshack.us/img687/9098/aassl.png[/img]
[img]http://img19.imageshack.us/img19/2327/21143825.png[/img]
[img]http://img809.imageshack.us/img809/3803/aaassaassaasss.png[/img]
[img]http://img831.imageshack.us/img831/9310/aaassasaasss.png[/img]
[img]http://img132.imageshack.us/img132/8343/aaassasass.png[/img]



Greetz

ViSiON,SPK,SceneLovers,PRESTiGE,SANTi,3LT0N,YanKeeS,COPYxRIGHT,THC,T0XiC
D2U,LKRG,ADTRG,Feel-Free,KoDeKinG,FLAWL3SS,WBZ,BHRG,26K,NOVA,MAGNET
Unevano,BigVik,Rapeseed,SAFC,TED,goldadvance,KaN1vE,Pinnz,Wayne
Mr Hive,jtr,Limey,ICONiK,SeeN and most P2P groups
Great Work Guys :D

LOOKING FOR ANYTHING YOU WANT TO LOOK AND SOUND BETTER

CM8@hushmail.com